<svg xmlns="http://www.w3.org/2000/svg" version="1.1" viewBox="-5.0 -10.0 110.0 135.0">
 <path fill="#fff" d="m34.414 61.879v-12.508c0-1.4102-0.55859-2.7578-1.5547-3.7539-0.99609-0.99609-2.3438-1.5547-3.75-1.5547h-0.015625c-1.4062 0-2.7578 0.55859-3.75 1.5547-1 0.99609-1.5586 2.3438-1.5586 3.7539v12.508c0 1.4102 0.55859 2.7578 1.5586 3.7539 0.99219 0.99609 2.3438 1.5547 3.75 1.5547h0.015625c1.4062 0 2.7539-0.55859 3.75-1.5547 0.99609-0.99609 1.5547-2.3438 1.5547-3.7539zm-3.1289 0c0 0.58203-0.22656 1.1367-0.63672 1.543-0.41016 0.41016-0.96484 0.64062-1.5391 0.64062h-0.015625c-0.57812 0-1.1328-0.23047-1.543-0.64062-0.41016-0.40625-0.63672-0.96094-0.63672-1.543v-12.508c0-0.58203 0.22656-1.1367 0.63672-1.543 0.41016-0.41016 0.96484-0.64062 1.543-0.64062h0.015625c0.57422 0 1.1289 0.23047 1.5391 0.64062 0.41016 0.40625 0.63672 0.96094 0.63672 1.543v12.508z" fill-rule="evenodd"/>
 <path fill="#fff" d="m29.102 43.438c2.9297 0 5.3125-2.3789 5.3125-5.3125s-2.3828-5.3125-5.3125-5.3125c-2.9336 0-5.3164 2.3789-5.3164 5.3125s2.3828 5.3125 5.3164 5.3125zm0-3.125c-1.2109 0-2.1875-0.98047-2.1875-2.1875s0.97656-2.1875 2.1875-2.1875c1.207 0 2.1836 0.98047 2.1836 2.1875s-0.97656 2.1875-2.1836 2.1875z" fill-rule="evenodd"/>
 <path fill="#fff" d="m39.516 70.02h49.547c2.5859 0 4.6875-2.0977 4.6875-4.6875v-30.664c0-2.5898-2.1016-4.6875-4.6875-4.6875h-49.547c-3.1641-1.6836-6.7773-2.6367-10.609-2.6367-12.504 0-22.656 10.152-22.656 22.656s10.152 22.656 22.656 22.656c3.832 0 7.4453-0.95312 10.609-2.6367zm-10.609-39.551c10.777 0 19.531 8.7539 19.531 19.531s-8.7539 19.531-19.531 19.531-19.531-8.7539-19.531-19.531 8.7539-19.531 19.531-19.531zm15.09 2.6367c4.6406 4.1523 7.5664 10.184 7.5664 16.895s-2.9258 12.742-7.5664 16.895h45.066c0.86328 0 1.5625-0.69922 1.5625-1.5625v-30.664c0-0.86328-0.69922-1.5625-1.5625-1.5625z" fill-rule="evenodd"/>
 <path fill="#fff" d="m56.59 41.016h6.5938c0.86328 0 1.5625-0.69922 1.5625-1.5625s-0.69922-1.5625-1.5625-1.5625h-6.5938c-0.85938 0-1.5625 0.69922-1.5625 1.5625s0.70312 1.5625 1.5625 1.5625z" fill-rule="evenodd"/>
 <path fill="#fff" d="m71.094 41.016h14.504c0.85938 0 1.5625-0.69922 1.5625-1.5625s-0.70312-1.5625-1.5625-1.5625h-14.504c-0.86328 0-1.5625 0.69922-1.5625 1.5625s0.69922 1.5625 1.5625 1.5625z" fill-rule="evenodd"/>
 <path fill="#fff" d="m56.59 51.562h29.004c0.86328 0 1.5664-0.69922 1.5664-1.5625s-0.70312-1.5625-1.5664-1.5625h-29.004c-0.85938 0-1.5625 0.69922-1.5625 1.5625s0.70312 1.5625 1.5625 1.5625z" fill-rule="evenodd"/>
 <path fill="#fff" d="m56.594 62.109h17.137c0.86328 0 1.5625-0.69922 1.5625-1.5625s-0.69922-1.5625-1.5625-1.5625h-17.137c-0.86328 0-1.5625 0.69922-1.5625 1.5625s0.69922 1.5625 1.5625 1.5625z" fill-rule="evenodd"/>
 <path fill="#fff" d="m79.004 62.109h6.5898c0.86328 0 1.5664-0.69922 1.5664-1.5625s-0.70312-1.5625-1.5664-1.5625h-6.5898c-0.86328 0-1.5625 0.69922-1.5625 1.5625s0.69922 1.5625 1.5625 1.5625z" fill-rule="evenodd"/>
</svg>