<svg xmlns="http://www.w3.org/2000/svg" version="1.1" viewBox="-5.0 -10.0 110.0 135.0">
 <path fill="#fff" d="m17.344 91.082h65.312c4.1367-0.003906 7.4883-3.3594 7.4883-7.5v-59.312c0.023438-4.4492-3.168-8.2695-7.5508-9.0391v-0.52344c-0.003906-3.1953-2.5938-5.7852-5.793-5.7891h-39.301c-3.1914 0.011719-5.7773 2.5977-5.7812 5.7891v0.36328l-12.668 0.003907c-5.0781 0.003906-9.1914 4.1172-9.1953 9.1953v59.312c0 4.1406 3.3516 7.4961 7.4883 7.5zm71.449-66.812v22.156c-1.3984-2.0078-3.6914-3.207-6.1367-3.207h-0.0625v-26.551c3.6055 0.74609 6.1914 3.9219 6.1992 7.6016zm-51.293-14h39.301c1.1797 0 2.3125 0.46484 3.1445 1.2969 0.83594 0.83203 1.3047 1.9648 1.3047 3.1406v28.512h-9.9883v-13.875c-0.019531-4.125-3.3633-7.4648-7.4922-7.4688h-30.676v-7.168c0-2.4375 1.9688-4.418 4.4062-4.4375zm26.25 12.938c3.3867 0 6.1367 2.75 6.1367 6.1367v13.875h-12.824c-2.1133 0.015625-4.082-1.0664-5.207-2.8555l-4.5117-7.0938c-1.3672-2.168-3.7578-3.4805-6.3242-3.4688h-18.875v-0.45703c0.007813-3.3906 2.7578-6.1367 6.1484-6.1367zm-52.562 1.043c0-4.332 3.5117-7.8438 7.8438-7.8438h12.707v5.4688h-3.4453c-4.1133 0.023438-7.4414 3.3555-7.4609 7.4688v0.45703h-3.4883c-2.4453 0-4.7383 1.1992-6.1367 3.2109zm0 40.074v-27.086c0-3.3867 2.7461-6.1328 6.1367-6.1328h23.719c2.1094-0.015625 4.0781 1.0625 5.207 2.8438l4.5 7.0938c1.3711 2.1719 3.7656 3.4844 6.332 3.4766h25.574c3.3867 0 6.1367 2.75 6.1367 6.1367v32.926c0 3.3906-2.7461 6.1406-6.1367 6.1484h-65.312c-3.3906-0.007813-6.1367-2.7578-6.1367-6.1484zm43.887-30.523c-0.27734-0.25-0.30469-0.67188-0.0625-0.95703 0.11719-0.13281 0.28906-0.21484 0.46875-0.22656 0.17969-0.007813 0.35547 0.054687 0.48828 0.17578l3.125 2.7383 5.043-7.832c0.09375-0.15234 0.25-0.26172 0.42578-0.30078 0.17578-0.039063 0.35938-0.003907 0.51172 0.089843 0.31641 0.20312 0.41016 0.62109 0.20703 0.9375l-5.4805 8.5c-0.10547 0.16797-0.28125 0.28125-0.47656 0.3125h-0.085938c-0.16797 0-0.32812-0.058593-0.45703-0.16406zm-33.605 41.906h40.781c1.918-0.10156 3.4219-1.6875 3.4219-3.6094 0-1.918-1.5039-3.5039-3.4219-3.6094h-40.781c-1.918 0.10547-3.4219 1.6914-3.4219 3.6094 0 1.9219 1.5039 3.5078 3.4219 3.6094zm0-5.8633h40.781c1.1875 0.082031 2.1055 1.0664 2.1055 2.2539 0 1.1914-0.91797 2.1758-2.1055 2.2578h-40.781c-1.1875-0.082031-2.1055-1.0664-2.1055-2.2578 0-1.1875 0.91797-2.1719 2.1055-2.2539zm0 16.094h40.781c1.918-0.10156 3.4219-1.6875 3.4219-3.6094s-1.5039-3.5078-3.4219-3.6094h-40.781c-1.918 0.10156-3.4219 1.6875-3.4219 3.6094s1.5039 3.5078 3.4219 3.6094zm0-5.8633h40.781c1.1875 0.078125 2.1055 1.0664 2.1055 2.2539s-0.91797 2.1758-2.1055 2.2539h-40.781c-1.1875-0.078125-2.1055-1.0664-2.1055-2.2539s0.91797-2.1758 2.1055-2.2539z"/>
</svg>